# xmcd
#
# Track frame offsets:
# 150
# 16316
# 31597
# 49916
# 65246
# 84508
# 100377
# 110971
# 128041
# 142319
# 153772
# 169350
# 184002
# 198548
# 212626
#
# Disc length: 3000 seconds
#
#
# Revision: 0
# Processed by: cddbd v1.5.2PL0 Copyright (c) Steve Scherf et al.
# Submitted via: FreeRIP 2.96 
#
DISCID=dc0bb60f
DTITLE=Coração Sertanejo - CD 4 - Coração Sertanejo - CD 4
DYEAR=2010
DGENRE=Country
TTITLE0=Coração só vê você - João Bosco and Vinícius
TTITLE1=Onde haja sol - Jorge and Mateus
TTITLE2=Pássaro de fogo - Paula Fernandes
TTITLE3=Até o final - Fernando and Sorocaba
TTITLE4=Foi você quem trouxe - Edson and Hudson
TTITLE5=Pensa em mim - Lucas E Luan
TTITLE6=A dama e o vagabundo - Alvaro and Daniel
TTITLE7=Larga de bobeira - Michel Teló
TTITLE8=Uma canção pra você - Edson
TTITLE9=Ta na cara - Christian and Cristiano
TTITLE10=Nosso amor é ouro - Zezé Di Camargo and Luciano
TTITLE11=Afinal - Luis Guilherme and Nadielly
TTITLE12=Estrela - Hugo Pena and Gabriel
TTITLE13=Vida do meu coração - Ronny and Rangel
TTITLE14=O mundo gira - Ricardo and João Fernando
EXTD=Ano 2010 - M. P. A.
EXTT0=
EXTT1=
EXTT2=
EXTT3=
EXTT4=
EXTT5=
EXTT6=
EXTT7=
EXTT8=
EXTT9=
EXTT10=
EXTT11=
EXTT12=
EXTT13=
EXTT14=
PLAYORDER=
